<?xml version="1.0" ?><svg xmlns="http://www.w3.org/2000/svg" id="Woman-2" viewBox="0 0 64 64"><path d="M15.23339844,48c-3.19873047,0-5.92529297-2.38476562-6.20703125-5.4296875-.11816406-1.27587891.16015625-2.52636719.80419922-3.61523438,1.05419922-1.78515625,1.45703125-3.94726562,1.19677734-6.42822266-.01806641-.17236328-.02734375-.34814453-.02734375-.52685547,0-1.01806641.30419922-1.99755859.87939453-2.83349609,2.04150391-2.96533203,3.12060547-6.20410156,3.12060547-9.3671875v-1.36914062C15,8.86865234,22.58447266,1.04980469,31.90722656,1.00048828l.13330078-.00048828c4.51416016,0,8.76806641,1.76855469,11.97900391,4.97998047,3.21191406,3.21191406,4.98046875,7.48046875,4.98046875,12.02001953v1.79931641c0,3.16357422,1.07910156,6.40283203,3.12109375,9.36767578.57519531.83544922.87890625,1.81542969.87890625,2.83300781,0,.17919922-.00976562.35546875-.02734375.52978516-.25976562,2.47900391.14257812,4.64257812,1.19726562,6.42480469.64355469,1.08837891.921875,2.33837891.80371094,3.61621094-.28125,3.04394531-3.0078125,5.42919922-6.20703125,5.42919922H15.23339844Z" style="fill:#756663; stroke-width:0px;"/><path d="M17,22c-2.20916748,0-4,1.79083252-4,4s1.79083252,4,4,4h3v-8h-3Z" style="fill:#f4c9c9; stroke-width:0px;"/><path d="M47,22h-3v8h3c2.20916748,0,4-1.79083252,4-4s-1.79083252-4-4-4Z" style="fill:#f4c9c9; stroke-width:0px;"/><path d="M10,63v-8.76513672c0-3.18017578,1.8828125-6.05761719,4.796875-7.33105469l13.51074219-5.90380859h7.38476562l13.51074219,5.90380859c2.9140625,1.2734375,4.796875,4.15087891,4.796875,7.33105469v8.76513672H10Z" style="fill:#ff6c9d; stroke-width:0px;"/><path d="M32,54c-7.57861328,0-13.97412109-3.24023438-15.59912109-7.79736328l11.90673828-5.20263672h7.38476562l11.90429688,5.20166016c-.04003906.11279297-.08300781.22363281-.12792969.33300781-1.83984375,4.39550781-8.20019531,7.46533203-15.46875,7.46533203Z" style="fill:#f4c9c9; stroke-width:0px;"/><path d="M44,22v8c0,6.63000488-5.36999512,12-12,12s-12-5.36999512-12-12v-8h1.57000732c3.69000244,0,7.27001953-.97003174,10.40997314-2.76000977,2.92004395,1.78997803,6.30999756,2.76000977,9.80004883,2.76000977h2.2199707Z" style="fill:#ffe3e1; stroke-width:0px;"/><path d="M29,27.42626953c-.25585938,0-.51171875-.09765625-.70703125-.29296875-.71289062-.71289062-1.87304688-.71289062-2.5859375,0-.390625.390625-1.0234375.390625-1.4140625,0s-.390625-1.0234375,0-1.4140625c1.4921875-1.49316406,3.921875-1.49316406,5.4140625,0,.390625.390625.390625,1.0234375,0,1.4140625-.1953125.1953125-.45117188.29296875-.70703125.29296875Z" style="fill:#c4a9a9; stroke-width:0px;"/><path d="M39,27.42626953c-.25585938,0-.51171875-.09765625-.70703125-.29296875-.71289062-.71289062-1.87304688-.71289062-2.5859375,0-.390625.390625-1.0234375.390625-1.4140625,0s-.390625-1.0234375,0-1.4140625c1.4921875-1.49316406,3.921875-1.49316406,5.4140625,0,.390625.390625.390625,1.0234375,0,1.4140625-.1953125.1953125-.45117188.29296875-.70703125.29296875Z" style="fill:#c4a9a9; stroke-width:0px;"/><path d="M32,37c-2.75683594,0-5-2.24316406-5-5v-1h10v1c0,2.75683594-2.24316406,5-5,5Z" style="fill:#f9afaf; stroke-width:0px;"/><path d="M5.80859375,20.04296875c-.49121094-2.45605469-2.37890625-4.43554688-4.80859375-5.04296875,2.4296875-.60742188,4.31738281-2.58691406,4.80859375-5.04296875l.19140625-.95703125.19140625.95703125c.49121094,2.45605469,2.37890625,4.43554688,4.80859375,5.04296875-2.4296875.60742188-4.31738281,2.58691406-4.80859375,5.04296875l-.19140625.95605469-.19140625-.95605469Z" style="fill:#ffe094; stroke-width:0px;"/><path d="M57.80859375,12.04296875c-.49121094-2.45605469-2.37890625-4.43554688-4.80859375-5.04296875,2.4296875-.60742188,4.31738281-2.58691406,4.80859375-5.04296875l.19140625-.95703125.19140625.95703125c.49121094,2.45605469,2.37890625,4.43554688,4.80859375,5.04296875-2.4296875.60742188-4.31738281,2.58691406-4.80859375,5.04296875l-.19140625.95556641-.19140625-.95556641Z" style="fill:#ffe094; stroke-width:0px;"/><path d="M53.96289062,32.64306641c.02539062-.21826172.03710938-.42431641.03710938-.64306641,0-1.234375-.36621094-2.41113281-1.05761719-3.3984375-.36541748-.5289917-.70898438-1.10003662-1.03448486-1.69073486.05493164-.29626465.09210205-.59893799.09210205-.91082764,0-1.51647949-.69311523-2.86090088-1.76275635-3.77862549-.14892578-.77966309-.23724365-1.58898926-.23724365-2.42156982v-1.79980469c0-4.80664062-1.87304688-9.32666016-5.2734375-12.72705078C41.30664062,1.8515625,36.77050781.0234375,31.90478516,0,22.03222656.05224609,14,8.31982422,14,18.43017578v1.36962891c0,.831604-.08831787,1.64141846-.23815918,2.42236328-1.06915283.91772461-1.76184082,2.26177979-1.76184082,3.77783203,0,.31176758.03717041.61437988.09204102.91052246-.32434082.58959961-.66760254,1.16027832-1.03149414,1.68615723-.69384766.99121094-1.06054688,2.16845703-1.06054688,3.40332031,0,.21777344.01171875.42333984.03515625.63232422.23339844,2.26220703-.12548828,4.21679688-1.06591797,5.80908203-.75634766,1.28076172-1.07958984,2.74169922-.93505859,4.22070312.20806885,2.24633789,1.54101562,4.199646,3.50915527,5.33215332-1.59161377,1.64831543-2.54333496,3.86132812-2.54333496,6.23571777v8.77001953c0,.55224609.44775391,1,1,1h44c.55273438,0,1-.44775391,1-1v-8.77001953c0-2.37438965-.95159912-4.58734131-2.54351807-6.23583984,1.96801758-1.13232422,3.30072021-3.08483887,3.50836182-5.32714844.14550781-1.484375-.17773438-2.9453125-.93359375-4.22509766-.94042969-1.59326172-1.29980469-3.54785156-1.06835938-5.79882812ZM32,43c1.46276855,0,2.86462402-.25396729,4.17791748-.70147705l10.0947876,4.41308594c-1.97528076,3.69055176-7.75805664,6.28839111-14.27270508,6.28839111-6.51409912,0-12.29724121-2.59796143-14.27264404-6.28833008l10.09490967-4.41296387c1.31323242.44744873,2.71502686.70129395,4.17773438.70129395ZM32,41c-6.06542969,0-11-4.93457031-11-11v-7h.56982422c3.68105267,0,7.30579834-.95504476,10.39257812-2.60791016,2.98291016,1.70800781,6.36474609,2.60791016,9.81787109,2.60791016h1.21972656v7c0,6.06542969-4.93457031,11-11,11ZM14,26c0-1.65429688,1.34570312-3,3-3h2v6h-2c-1.65429688,0-3-1.34570312-3-3ZM45,23h2c.62335205,0,1.20239258.19158936,1.68261719.51824951.00268555.00219727.00512695.00439453.00787354.00653076.78948975.54095459,1.30950928,1.44793701,1.30950928,2.47521973,0,1.65429688-1.34570312,3-3,3h-2v-6ZM16,19.79980469v-1.36962891c0-9.01318359,7.13964844-16.38378906,15.91455078-16.43017578,4.27587891-.03271484,8.35791016,1.64550781,11.39794282,4.68701172,3.02246734,3.02294922,4.6875064,7.04052734,4.6875064,11.31298828v1.79980469c0,.44592285.03112793.8848877.06896973,1.32141113-.34521484-.07568359-.70135498-.12121582-1.06896973-.12121582h-5.21972656c-2.73205566,0-5.41033936-.63531494-7.84210205-1.83209229,1.50244141-1.02001953,2.87689209-2.1987915,4.07940674-3.55413818l1.73046875-1.95019531c.36621094-.41308594.32910156-1.04492188-.08398438-1.41162109-.41308594-.36621094-1.04589844-.32910156-1.41210938.08447266l-1.73046875,1.95019531c-1.59521484,1.79736328-3.50396729,3.27886963-5.66644287,4.41711426-2.86181641,1.49786377-6.0534668,2.29626465-9.28521729,2.29626465h-4.56982422c-.36761475,0-.72375488.04553223-1.06903076.12121582.03790283-.43670654.06903076-.87573242.06903076-1.32141113ZM10.02490234,42.47265625c-.10351562-1.05908203.12695312-2.10107422.66601562-3.01367188,1.16308594-1.96875,1.61181641-4.33496094,1.33251953-7.04003906-.015625-.14208984-.0234375-.27636719-.0234375-.41894531,0-.82275391.24169922-1.60302734.70214844-2.26123047.14111328-.20391846.27410889-.42114258.40997314-.6338501.91705322,1.14562988,2.30981445,1.89508057,3.88787842,1.89508057h2.05065918c.33227539,4.33404541,2.79467773,8.07122803,6.34375,10.17694092l-10.99597168,4.8069458c-.4074707.1786499-.79656982.38562012-1.16638184.61700439-1.79107666-.71783447-3.03643799-2.28729248-3.20715332-4.12823486ZM53,54.22998047v7.77001953H11v-7.77001953c0-2.77734375,1.64892578-5.29541016,4.20019531-6.41357422l.68841553-.30090332c2.28125,4.45349121,8.69647217,7.48449707,16.11138916,7.48449707,7.41503906,0,13.83044434-3.03161621,16.11077881-7.48486328l.68804932.30078125c2.55175781,1.11865234,4.20117188,3.63671875,4.20117188,6.4140625ZM53.97363281,42.47753906c-.16937256,1.83624268-1.41442871,3.40570068-3.20568848,4.12329102-.37005615-.23156738-.75958252-.43859863-1.1673584-.61743164l-10.99493408-4.80664062c3.5489502-2.10577393,6.01135254-5.84283447,6.34368896-10.17675781h2.05065918c1.578125,0,2.97088623-.74951172,3.88793945-1.89520264.13677979.21417236.27062988.43261719.4128418.6383667.45703125.65429688.69921875,1.43457031.69921875,2.25683594,0,.14160156-.0078125.27539062-.02539062.42724609-.27734375,2.69677734.171875,5.0625,1.33398438,7.03173828.5390625.91210938.76953125,1.95410156.66503906,3.01855469Z" style="fill:#393e4c; stroke-width:0px;"/><path d="M28.29296875,27.13330078c.1953125.1953125.45117188.29296875.70703125.29296875s.51171875-.09765625.70703125-.29296875c.390625-.390625.390625-1.0234375,0-1.4140625-1.4921875-1.49316406-3.921875-1.49316406-5.4140625,0-.390625.390625-.390625,1.0234375,0,1.4140625s1.0234375.390625,1.4140625,0c.71289062-.71289062,1.87304688-.71289062,2.5859375,0Z" style="fill:#393e4c; stroke-width:0px;"/><path d="M39.70703125,25.71923828c-1.4921875-1.49316406-3.921875-1.49316406-5.4140625,0-.390625.390625-.390625,1.0234375,0,1.4140625s1.0234375.390625,1.4140625,0c.71289062-.71289062,1.87304688-.71289062,2.5859375,0,.1953125.1953125.45117188.29296875.70703125.29296875s.51171875-.09765625.70703125-.29296875c.390625-.390625.390625-1.0234375,0-1.4140625Z" style="fill:#393e4c; stroke-width:0px;"/><path d="M11.24267578,15.97021484c.44481862-.11132812.75732422-.51123047.75732422-.97021484s-.3125056-.85888672-.75732422-.97021484c-2.05712891-.51416016-3.65478516-2.18994141-4.07080078-4.26904297l-.19140625-.95703125c-.09326172-.46728516-.50390625-.80371094-.98046875-.80371094s-.88720703.33642578-.98046875.80371094l-.19140625.95703125c-.41601562,2.07910156-2.01367188,3.75488281-4.07080078,4.26904297-.44482953.11132812-.75732422.51123047-.75732422.97021484s.31249469.85888672.75732422.97021484c2.05712891.51416016,3.65478516,2.18994141,4.07080078,4.26904297l.19140625.95703125c.09326172.46728516.50390625.80371094.98046875.80371094s.88720703-.33642578.98046875-.80371094l.19140625-.95703125c.41601562-2.07910156,2.01367188-3.75488281,4.07080078-4.26904297ZM6,17.69726562c-.60449219-1.09179688-1.47363281-2.02099609-2.52197266-2.69726562,1.04833984-.67626953,1.91748047-1.60546875,2.52197266-2.69726562.60449219,1.09179688,1.47363281,2.02099609,2.52197266,2.69726562-1.04833984.67626953-1.91748047,1.60546875-2.52197266,2.69726562Z" style="fill:#393e4c; stroke-width:0px;"/><path d="M63.2421875,6.02978516c-2.05664062-.51416016-3.65429688-2.18994141-4.0703125-4.26904297l-.19140625-.95703125c-.09375-.46728516-.50390625-.80371094-.98046875-.80371094s-.88671875.33642578-.98046875.80371094l-.19140625.95703125c-.41601562,2.07910156-2.01367188,3.75488281-4.0703125,4.26904297-.44531913.11132812-.7578125.51123047-.7578125.97021484s.31249337.85888672.7578125.97021484c2.05664062.51416016,3.65429688,2.18994141,4.0703125,4.26904297l.19140625.95703125c.09375.46728516.50390625.80371094.98046875.80371094s.88671875-.33642578.98046875-.80371094l.19140625-.95703125c.41601562-2.07910156,2.01367188-3.75488281,4.0703125-4.26904297.44530559-.11132812.7578125-.51123047.7578125-.97021484s-.31250691-.85888672-.7578125-.97021484ZM58,9.69775391c-.60449219-1.09228516-1.47363281-2.02148438-2.52246094-2.69775391,1.04882812-.67626953,1.91796875-1.60546875,2.52246094-2.69775391.60449219,1.09228516,1.47363281,2.02148438,2.52246094,2.69775391-1.04882812.67626953-1.91796875,1.60546875-2.52246094,2.69775391Z" style="fill:#393e4c; stroke-width:0px;"/><path d="M37,30h-10c-.55224609,0-1,.44775391-1,1v1c0,3.30859375,2.69140625,6,6,6s6-2.69140625,6-6v-1c0-.55224609-.44726562-1-1-1ZM32,36c-2.20556641,0-4-1.79443359-4-4h8c0,2.20556641-1.79394531,4-4,4Z" style="fill:#393e4c; stroke-width:0px;"/></svg>